inDegrees=no
num_controls=7
num_derivatives=13
num_iterations=119
num_multipliers=7
num_parameters=0
num_slacks=7
num_states=26
objective=0.476977
objective_accelerations=0.044258
objective_balance=0.003625
objective_effort=0.040476
objective_height=0.382954
objective_ligament=0.005663
solver_duration=1623.519926
status=Solve_Succeeded
success=true
DataType=double
version=3
OpenSimVersion=4.5
endheader
time	/jointset/ground_pelvis/pelvis_tilt/value	/jointset/ground_pelvis/pelvis_tx/value	/jointset/ground_pelvis/pelvis_ty/value	/jointset/hip_l/hip_flexion_l/value	/jointset/hip_l/hip_adduction_l/value	/jointset/hip_l/hip_rotation_l/value	/jointset/back/lumbar_extension/value	/jointset/patellofemoral_l/patellar_flexion_l/value	/jointset/knee_l/knee_flexion_l/value	/jointset/knee_l/knee_adduction_l/value	/jointset/knee_l/knee_rotation_l/value	/jointset/ankle_l/ankle_angle_l/value	/jointset/subtalar_l/subtalar_angle_l/value	/jointset/ground_pelvis/pelvis_tilt/speed	/jointset/ground_pelvis/pelvis_tx/speed	/jointset/ground_pelvis/pelvis_ty/speed	/jointset/hip_l/hip_flexion_l/speed	/jointset/hip_l/hip_adduction_l/speed	/jointset/hip_l/hip_rotation_l/speed	/jointset/back/lumbar_extension/speed	/jointset/patellofemoral_l/patellar_flexion_l/speed	/jointset/knee_l/knee_flexion_l/speed	/jointset/knee_l/knee_adduction_l/speed	/jointset/knee_l/knee_rotation_l/speed	/jointset/ankle_l/ankle_angle_l/speed	/jointset/subtalar_l/subtalar_angle_l/speed	/forceset/tau_hip_flexion_l	/forceset/tau_hip_adduction_l	/forceset/tau_hip_rotation_l	/forceset/tau_knee_flexion_l	/forceset/tau_ankle_angle_l	/forceset/tau_subtalar_angle_l	/forceset/tau_lumbar_extension	lambda_cid13_p0	lambda_cid13_p1	lambda_cid13_p2	lambda_cid13_p3	lambda_cid13_p4	lambda_cid13_p5	lambda_cid14_p0	/jointset/ground_pelvis/pelvis_tilt/accel	/jointset/ground_pelvis/pelvis_tx/accel	/jointset/ground_pelvis/pelvis_ty/accel	/jointset/hip_l/hip_flexion_l/accel	/jointset/hip_l/hip_adduction_l/accel	/jointset/hip_l/hip_rotation_l/accel	/jointset/back/lumbar_extension/accel	/jointset/patellofemoral_l/patellar_flexion_l/accel	/jointset/knee_l/knee_flexion_l/accel	/jointset/knee_l/knee_adduction_l/accel	/jointset/knee_l/knee_rotation_l/accel	/jointset/ankle_l/ankle_angle_l/accel	/jointset/subtalar_l/subtalar_angle_l/accel	gamma_cid13_p0	gamma_cid13_p1	gamma_cid13_p2	gamma_cid13_p3	gamma_cid13_p4	gamma_cid13_p5	gamma_cid14_p0
1	-0.1082124404820494	-0.05882677568165534	0.6821074564486388	1.326377775686594	-0.3281648132050694	0.0735905039374365	-0.959930977362315	1.399212627223312	1.399212627223482	-0.06694082155860437	-0.1745314230824369	0.2787591225234835	0.06454095077301326	0.1042140211839494	0.02564304818296701	0.07050122789231233	-0.3007326523521551	-0.007404374075169006	-0.06600280605735585	3.50547258488292e-05	-0.161856267185446	-0.1618562671853995	-0.001685515789793527	-1.759367639475129e-06	0.02577959640841971	0.002647002920831796	-0.3702176364131173	0.01628208733727959	0.001495794487930834	-0.3786505104919479	0.04226386124149437	0.02504618264923629	0.4237163245192714	-37.64062366856426	-3.245335765746723	-1.126693685497211	12.9492041933104	-798.9123397160824	-69.21916398059875	-0.04153528744444669	0.8140486179458389	-0.004578481215687683	1.53734299646809	-4.945770868407955	-0.1298505323070162	-1.669879107890451	-0.02596172160285799	-4.969869854258909	-4.969869854260159	-0.3368315501022361	-0.01755650471900807	-1.190418578725783	-0.6689462219743105	-8.055068509885126e-09	2.054017050340138e-08	6.656281870024017e-08	4.297458534751735e-09	-2.231091395244118e-08	1.277372520105816e-07	-1.729493040266376e-08
1.01	-0.1071300720748667	-0.05857051861969471	0.6828890842717789	1.323124205612112	-0.3282445932799502	0.07284615464045892	-0.9599310801818645	1.397346012358839	1.397346012358709	-0.06697257117903081	-0.1745313959436309	0.2789574986911549	0.0645350374544921	0.1122493963870042	0.02561478356601608	0.08580933202672868	-0.349942316976299	-0.00854193409433671	-0.08285843212935184	-1.803181123730094e-05	-0.2114526117038494	-0.2114526117038261	-0.004660738885126626	5.510810317152555e-06	0.01388215943500063	-0.003822763353501031	-0.3694490489958947	0.01647414387661111	0.001416392500732427	-0.3783292453563138	0.04206917251260452	0.02519477674177861	0.4233807632427405	-37.66276823843438	-3.320703432801487	-1.097874906900821	12.82360777357004	-798.5008447302582	-69.28362185739799	-0.04157025009505903	0.7967403046504032	-0.0009848957037775284	1.525287438667534	-4.902710307164493	-0.1042608396239367	-1.69212898361188	0.01065590690091	-4.95239796942634	-4.9523979694292	-0.2773283627018582	0.009640571616950151	-1.191427906301323	-0.6349696779847559	-1.55525300102721e-08	1.361009267618361e-08	9.549080230143511e-08	1.317380719464077e-08	-2.980883672719272e-08	1.464831374451092e-07	-2.3340987213826e-08
1.02	-0.1059676582490204	-0.05831435109265737	0.683823341799611	1.319379709681839	-0.3283354593756031	0.07193350415740993	-0.9599305862616582	1.394983857805423	1.394983857804992	-0.06703396516510092	-0.1745313417445343	0.279036496159162	0.06446463090366325	0.1202231049166629	0.02562514119830771	0.1010271688307063	-0.3989178235103188	-0.009621578229596188	-0.09966304327165643	0.000154402718171066	-0.2609642049740647	-0.2609642049740651	-0.007614388918579998	3.652690831974091e-06	0.001903856475527252	-0.01025164354071339	-0.3686804615786725	0.01666620041594329	0.001336990513535845	-0.3780079802206799	0.04187448378371478	0.02534337083432181	0.4230452019662095	-37.69627769092399	-3.392754917888119	-1.071099862314981	12.75520513183421	-798.2348749346083	-69.32330076487628	-0.0416057471979374	0.8017152832665994	0.003145968632830832	1.51928953038035	-4.898939250383134	-0.1182673555253725	-1.659676121952167	0.01914249169600546	-4.95291960462129	-4.952919604622644	-0.3325169377262912	-0.01938216420737186	-1.206591775936637	-0.6607690045502155	-2.375816145562965e-08	4.551499243323071e-09	1.234098106566181e-07	2.231996084881932e-08	-3.821830764570652e-08	1.643748196147678e-07	-2.9551873894451e-08
1.03	-0.104726238157555	-0.05805762262471591	0.6849093699493429	1.315146617341927	-0.3284368008174637	0.07085309671629743	-0.9599251439983946	1.392126877799372	1.392126877799333	-0.06712482821416094	-0.1745312717259382	0.2789956181171886	0.06433033419316378	0.1280098290280966	0.02575375870727289	0.1161682204938041	-0.4476658923408955	-0.01063729864974495	-0.1164106249999513	0.001180178257597936	-0.3104323909503955	-0.3104323909503999	-0.01055990309397399	9.720602562175261e-06	-0.01006235325421021	-0.01658628084488968	-0.3697634143035178	0.01704857843933838	0.001215608410564004	-0.3771642383705646	0.04135350140762338	0.02562626238031237	0.4248535861864359	-37.88385616107801	-3.512983744275555	-1.01742191583611	12.27717176664349	-799.2111671104105	-69.37030571543059	-0.04164869386887203	0.7594859477385144	0.02270693885363449	1.509967512555042	-4.857531710535132	-0.09182676222108653	-1.681154875884146	0.1812143332273815	-4.943850110738202	-4.943850110737973	-0.2758394400356641	0.01054188922299009	-1.189070871057712	-0.6166153046846831	-3.197101912491549e-08	-4.52881373653384e-09	1.513185233460254e-07	3.14688676151845e-08	-4.663708007589138e-08	1.822577854245808e-07	-3.576444251251949e-08
1.04	-0.1034084838304438	-0.05779861052231974	0.686146499521362	1.31042708611148	-0.3285480199389183	0.06960544232237888	-0.9599020601300904	1.388775199530238	1.388775199530592	-0.06724520056149245	-0.1745311529041528	0.2788355909180049	0.0641333302673559	0.1354899520458006	0.0260818680892497	0.1312474532881227	-0.4962056016170806	-0.01159711414835226	-0.1331124338328863	0.003682723723478696	-0.359903857590696	-0.3599038575906979	-0.01351624857295624	1.341332868338283e-05	-0.02192597496656416	-0.02279308660239986	-0.3708463670283663	0.01743095646273366	0.00109422630759452	-0.3763204965204495	0.04083251903153254	0.02590915392630338	0.4266619704066596	-38.08311672026631	-3.629771518502324	-0.9658868009751118	11.8549554664241	-800.3383922470939	-69.39272328624371	-0.04169063994790224	0.7403950645206624	0.04304434323515833	1.506925756624496	-4.857267339504824	-0.1070863712170871	-1.650521542880195	0.3144964769867534	-4.953575737415256	-4.953575737415266	-0.3346831984439439	-0.01985720132917566	-1.186074172459928	-0.6352026952169934	-3.580466609054601e-08	-1.472715678248448e-08	1.786204455848339e-07	3.158041633163441e-08	-5.151071785742701e-08	1.929198018256333e-07	-4.150175944612763e-08
1.05	-0.1020171860603896	-0.05753534867001749	0.6875340076916253	1.305223245709501	-0.3286685279989315	0.06819115381089447	-0.9598472983763232	1.384929067319053	1.384929067319008	-0.06739521905112565	-0.1745310193942904	0.2785574136098272	0.06387493574633409	0.1427440798761757	0.02660081735051869	0.1462332384406018	-0.5445211191439875	-0.01249091463023467	-0.1497261114298745	0.007445247283723169	-0.4092955497315202	-0.4092955497315213	-0.01648656983818888	1.337590925875907e-05	-0.03369484559824961	-0.02885887114954524	-0.3710093465835443	0.01775171155855771	0.0009403619264842748	-0.3752631935887326	0.04063724174905223	0.02624726807825559	0.4275384566235631	-38.11641856090326	-3.807649799584273	-0.8954179863705211	11.36483714534094	-800.5206580568067	-69.47289934628154	-0.0417458872878667	0.7140900642495421	0.06087374466393423	1.491252243145646	-4.812494901342026	-0.07851045691142523	-1.66395556642071	0.4334733335868543	-4.92790121255521	-4.92790121255507	-0.2780992447106149	0.009982449936372591	-1.17009995895001	-0.5882444660790385	-3.950146272168733e-08	-2.496043826800055e-08	2.059034056220613e-07	3.140954760902451e-08	-5.627357018119237e-08	2.033561635576621e-07	-4.722422476459638e-08
1.06	-0.1005541133276407	-0.05726598661968432	0.6890707431831307	1.29953748994384	-0.3287975707778111	0.06661129558377776	-0.9597496427793443	1.380589831134432	1.380589831133988	-0.06757491928424023	-0.1745308743661842	0.2781619863052474	0.06355668775351769	0.1498449445846947	0.02730190769543398	0.1610929175365233	-0.5925886743532308	-0.01330405792162154	-0.1662263769593664	0.0122614923657102	-0.4585246522779129	-0.4585246522779129	-0.01945259726932896	1.571697725332039e-05	-0.04537597424702128	-0.03476378096131973	-0.3711723261387248	0.01807246665438195	0.0007864975453783211	-0.3742058906570154	0.04044196446657242	0.02658538223020818	0.4284149428404647	-38.1615494497002	-3.982029064678589	-0.8271380734952033	10.92863089759526	-800.8563659680483	-69.53000546417316	-0.04179933160625862	0.7097424401494328	0.07947255996442126	1.481704545312998	-4.807674875972092	-0.09095493311797842	-1.627839129380957	0.5252407813352611	-4.921057818528952	-4.921057818528915	-0.3338244316254336	-0.01938150384534142	-1.168525775877168	-0.603027748142816	-4.401454314048505e-08	-3.76172536395091e-08	2.290967571665423e-07	3.233743075373682e-08	-6.154758016363767e-08	2.089840223840956e-07	-5.237105372752151e-08
1.07	-0.09902097105030798	-0.05698869734012513	0.6907553505582253	1.293372654613012	-0.3289343152845591	0.06486706706025804	-0.9595983721671411	1.3757592118845	1.375759211884499	-0.06778426958245039	-0.1745307102426447	0.2776501040230621	0.06318020367290413	0.1567394064155874	0.02818691024675092	0.1757980966538612	-0.6403005509231096	-0.01402808163264471	-0.1825995742933774	0.0181884829385678	-0.507562980964879	-0.507562980964878	-0.02241169149737803	1.58167079601605e-05	-0.05699379434950418	-0.04050428962423036	-0.371029938162009	0.01841250226242586	0.0005987022504782765	-0.3728823961938867	0.04033954219277404	0.0269913788491351	0.4290468737538773	-38.1452090712158	-4.205697832567584	-0.740668389816461	10.41847150885453	-800.772390917335	-69.63129629411844	-0.0418664508715973	0.6726783835499247	0.09766508597554878	1.460342025941171	-4.741273767691277	-0.06063824259958219	-1.639144440803349	0.6558061247958408	-4.889776312427323	-4.889776312427168	-0.2761170505498469	0.009567555895232971	-1.157410770808156	-0.5552720190296568	-4.857104290969002e-08	-5.040298038793215e-08	2.52072576344388e-07	3.332375814671095e-08	-6.68487793832468e-08	2.143561097793805e-07	-5.748726373536452e-08
